[center][img]http://www.britscene.com/wp-content/uploads/2011/02/British-Movie-Horrid-Henry-Poster-300x225.jpg[/img]
Format                                   : AVI
Format/Info                              : Audio Video Interleave
File size                                : 700 MiB
Duration                                 : 1h 29mn
Overall bit rate                         : 1 099 Kbps
Movie name                               : H.H.DDR.ANALOG
Writing application                      : VirtualDubMod 1.5.4.1 (build 2178/release) VirtualDubMod build 2178/release
Copyright                                : ANALOG
Encoded by                               : Cooperman

Video
ID                                       : 0
Format                                   : MPEG-4 Visual
Format profile                           : Advanced Simple@L5
Format settings, BVOP                    : 1
Format settings, QPel                    : No
Format settings, GMC                     : No warppoints
Format settings, Matrix                  : Custom
Codec ID                                 : XVID
Codec ID/Hint                            : XviD
Duration                                 : 1h 29mn
Bit rate                                 : 980 Kbps
Width                                    : 640 pixels
Height                                   : 352 pixels
Display aspect ratio                     : 16:9
Frame rate                               : 25.000 fps
Color space                              : YUV
Chroma subsampling                       : 4:2:0
Bit depth                                : 8 bits
Scan type                                : Progressive
Compression mode                         : Lossy
Bits/(Pixel*Frame)                       : 0.174
Stream size                              : 624 MiB (89%)
Writing library                          : XviD 64

Audio
ID                                       : 1
Format                                   : MPEG Audio
Format version                           : Version 1
Format profile                           : Layer 3
Mode                                     : Joint stereo
Mode extension                           : MS Stereo
Codec ID                                 : 55
Codec ID/Hint                            : MP3
Duration                                 : 1h 29mn
Bit rate mode                            : Constant
Bit rate                                 : 112 Kbps
Channel(s)                               : 2 channels
Sampling rate                            : 44.1 KHz
Compression mode                         : Lossy
Delay relative to video                  : 6ms
Stream size                              : 71.3 MiB (10%)
Alignment                                : Split accross interleaves
Interleave, duration                     : 80 ms (2.00 video frames)
Interleave, preload duration             : 500 ms
Writing library                          : LAME3.98r
Encoding settings                        : -m j -V 4 -q 2 -lowpass 15.6 -b 112
Language                                 : English
Sample                                   : Yes!check it!! thats what its for!!
source file                              : HORRID HENRY 2011 PAL DVDR Legend-Rg  THANX 
As humans, we perceive the world in analog. Everything we see and hear is a continuous transmission of information to our senses.
ANALOG.P.2.P@HUSHMAIL.COM
GREATINGS TO ALL THE P2P PLACES I LURK AT!!

[img]http://img265.imageshack.us/img265/9127/hhddranalogavisnapshot0.jpg[/img]
[img]http://img231.imageshack.us/img231/9127/hhddranalogavisnapshot0.jpg[/img]
[img]http://img339.imageshack.us/img339/9127/hhddranalogavisnapshot0.jpg[/img]
[img]http://img830.imageshack.us/img830/9127/hhddranalogavisnapshot0.jpg[/img]